<svg xmlns="http://www.w3.org/2000/svg" width="24" height="24" viewBox="0 0 24 24">
  <path fill="#FFF" fill-rule="evenodd" d="M14,11.7566017 L17.8172619,7.93933983 C18.4030483,7.35355339 19.3527958,7.35355339 19.9385822,7.93933983 C20.5243687,8.52512627 20.5243687,9.47487373 19.9385822,10.0606602 L13.5746212,16.4246212 C12.9888348,17.0104076 12.0390873,17.0104076 11.4533009,16.4246212 L5.08933983,10.0606602 C4.50355339,9.47487373 4.50355339,8.52512627 5.08933983,7.93933983 C5.67512627,7.35355339 6.62487373,7.35355339 7.21066017,7.93933983 L11,11.7286797 L11,4 C11,3.17157288 11.6715729,2.5 12.5,2.5 C13.3284271,2.5 14,3.17157288 14,4 L14,11.7566017 Z M4.5,18 L20.5,18 C21.3284271,18 22,18.6715729 22,19.5 C22,20.3284271 21.3284271,21 20.5,21 L4.5,21 C3.67157288,21 3,20.3284271 3,19.5 C3,18.6715729 3.67157288,18 4.5,18 Z"/>
</svg>
